<svg width="21" height="20" viewBox="0 0 21 20" fill="none" xmlns="http://www.w3.org/2000/svg">
<path d="M0 0H20V10.7966L19.01 12.3434L20 13.72V20H0V9.82213L0.618716 9.1106L0 8.43001V0Z" fill="#016FD0"/>
<path d="M3.88244 13.9341V10.7941H7.20709L7.5638 11.2592L7.93232 10.7941H20V13.7176C20 13.7176 19.6844 13.931 19.3194 13.9342H12.6373L12.2351 13.4392V13.9342H10.9172V13.0892C10.9172 13.0892 10.7372 13.2072 10.348 13.2072H9.89946V13.9342H7.90411L7.5479 13.4592L7.18624 13.9342L3.88244 13.9341ZM0 8.42757L0.749722 6.67969H2.0463L2.47176 7.65878V6.67969H4.08352L4.33681 7.38734L4.58236 6.67969H11.8175V7.03545C11.8175 7.03545 12.1978 6.67969 12.8229 6.67969L15.1704 6.68791L15.5885 7.65417V6.67969H16.9374L17.3086 7.23473V6.67969H18.6698V9.81968H17.3086L16.9528 9.26282V9.81966H14.9711L14.7718 9.3247H14.2391L14.043 9.81966H12.6992C12.1613 9.81966 11.8175 9.47118 11.8175 9.47118V9.81966H9.79117L9.38901 9.32472V9.81968H1.85422L1.65507 9.32472H1.12399L0.9263 9.81966H0V8.42757Z" fill="white"/>
<path d="M1.01512 7.07071L0.00390625 9.42183H0.662261L0.848844 8.95102H1.93354L2.11914 9.42183H2.79201L1.78172 7.07071H1.01512ZM1.38925 7.61787L1.71987 8.44059H1.05766L1.38925 7.61787ZM2.8616 9.42143V7.07031L3.79714 7.07378L4.3413 8.58965L4.87241 7.07031H5.8005V9.42143H5.21272V7.68903L4.58965 9.42143H4.07417L3.44938 7.68903V9.42143H2.8616ZM6.20266 9.42143V7.07031H8.12068V7.59622H6.79663V7.99838H8.08974V8.49337H6.79663V8.911H8.12068V9.42143H6.20266ZM8.46099 7.07071V9.42183H9.04876V8.58656H9.29624L10.001 9.42183H10.7193L9.94589 8.55562C10.2633 8.52883 10.5907 8.25642 10.5907 7.83347C10.5907 7.33872 10.2024 7.07071 9.76899 7.07071H8.46099ZM9.04876 7.59662H9.72063C9.88183 7.59662 9.99906 7.72269 9.99906 7.84409C9.99906 8.00028 9.84715 8.09159 9.72935 8.09159H9.04876V7.59662ZM11.4308 9.42143H10.8307V7.07031H11.4308V9.42143ZM12.8539 9.42143H12.7243C12.0975 9.42143 11.717 8.9276 11.717 8.25554C11.717 7.56685 12.0933 7.07031 12.8848 7.07031H13.5344V7.62716H12.861C12.5397 7.62716 12.3125 7.87792 12.3125 8.26133C12.3125 8.71666 12.5723 8.9079 12.9467 8.9079H13.1013L12.8539 9.42143ZM14.1329 7.07071L13.1217 9.42183H13.78L13.9666 8.95102H15.0513L15.2369 9.42183H15.9097L14.8995 7.07071H14.1329ZM14.507 7.61787L14.8376 8.44059H14.1754L14.507 7.61787ZM15.9784 9.42143V7.07031H16.7257L17.6798 8.5475V7.07031H18.2676V9.42143H17.5445L16.5661 7.90559V9.42143H15.9784ZM4.28466 13.5359V11.1848H6.20266V11.7107H4.87861V12.1129H6.17172V12.6078H4.87861V13.0255H6.20266V13.5359H4.28466ZM13.683 13.5359V11.1848H15.601V11.7107H14.2769V12.1129H15.5638V12.6078H14.2769V13.0255H15.6009V13.5359H13.683ZM6.2771 13.5359L7.21098 12.3748L6.25487 11.1848H6.99541L7.56482 11.9205L8.13618 11.1848H8.84771L7.90416 12.3603L8.83975 13.5359H8.09935L7.54645 12.8118L7.00701 13.5359H6.2771ZM8.90956 11.1852V13.5363H9.5128V12.7938H10.1315C10.655 12.7938 11.0519 12.5161 11.0519 11.976C11.0519 11.5285 10.7406 11.1852 10.2079 11.1852H8.90956ZM9.5128 11.7169H10.1644C10.3335 11.7169 10.4544 11.8205 10.4544 11.9876C10.4544 12.1445 10.3341 12.2583 10.1624 12.2583H9.5128V11.7169ZM11.3071 11.1848V13.5359H11.8949V12.7006H12.1423L12.8471 13.5359H13.5654L12.792 12.6697C13.1094 12.6429 13.4368 12.3705 13.4368 11.9475C13.4368 11.4528 13.0485 11.1848 12.6151 11.1848H11.3071ZM11.8949 11.7107H12.5667C12.7279 11.7107 12.8452 11.8367 12.8452 11.9582C12.8452 12.1144 12.6933 12.2056 12.5754 12.2056H11.8949V11.7107ZM15.8732 13.5359V13.0255H17.0495C17.2236 13.0255 17.2989 12.9314 17.2989 12.8282C17.2989 12.7294 17.2238 12.6295 17.0495 12.6295H16.5179C16.0559 12.6295 15.7986 12.348 15.7986 11.9253C15.7986 11.5483 16.0342 11.1848 16.7209 11.1848H17.8655L17.618 11.7138H16.628C16.4388 11.7138 16.3805 11.8131 16.3805 11.9079C16.3805 12.0053 16.4525 12.1129 16.5971 12.1129H17.1539C17.669 12.1129 17.8925 12.405 17.8925 12.7876C17.8925 13.199 17.6435 13.5359 17.1259 13.5359H15.8732ZM18.0305 13.5359V13.0255H19.2068C19.3809 13.0255 19.4562 12.9314 19.4562 12.8282C19.4562 12.7294 19.3811 12.6295 19.2068 12.6295H18.6752C18.2132 12.6295 17.9559 12.348 17.9559 11.9253C17.9559 11.5483 18.1915 11.1848 18.8781 11.1848H20.0228L19.7753 11.7138H18.7853C18.5961 11.7138 18.5378 11.8131 18.5378 11.9079C18.5378 12.0053 18.6098 12.1129 18.7544 12.1129H19.3112C19.8263 12.1129 20.0498 12.405 20.0498 12.7876C20.0498 13.199 19.8008 13.5359 19.2832 13.5359H18.0305Z" fill="#016FD0"/>
</svg>
