<svg width="33" height="20" viewBox="0 0 33 20" fill="none" xmlns="http://www.w3.org/2000/svg">
<path d="M11.3672 2.14062H20.9931V17.8625H11.3672V2.14062Z" fill="#FF5F00"/>
<path d="M12.3572 10.0045C12.356 8.49059 12.6992 6.99627 13.3608 5.6346C14.0224 4.27294 14.985 3.0796 16.1759 2.1449C14.7009 0.985746 12.9296 0.264934 11.0644 0.0648495C9.19916 -0.135235 7.31526 0.193481 5.62801 1.01343C3.94076 1.83337 2.51823 3.11147 1.523 4.70164C0.527774 6.29181 0 8.1299 0 10.0058C0 11.8818 0.527774 13.7199 1.523 15.31C2.51823 16.9002 3.94076 18.1783 5.62801 18.9982C7.31526 19.8182 9.19916 20.1469 11.0644 19.9468C12.9296 19.7467 14.7009 19.0259 16.1759 17.8668C14.9846 16.9318 14.0218 15.738 13.3602 14.3758C12.6986 13.0136 12.3556 11.5188 12.3572 10.0044V10.0045Z" fill="#EB001B"/>
<path d="M32.3532 10.0006C32.3531 11.8767 31.8252 13.7149 30.8298 15.3051C29.8344 16.8954 28.4117 18.1734 26.7242 18.9933C25.0367 19.8131 23.1526 20.1416 21.2873 19.9412C19.422 19.7408 17.6506 19.0197 16.1758 17.8601C17.3662 16.9246 18.3286 15.7309 18.9903 14.3692C19.6521 13.0075 19.9959 11.5132 19.9959 9.9992C19.9959 8.48518 19.6521 6.99094 18.9903 5.6292C18.3286 4.26746 17.3662 3.0738 16.1758 2.13827C17.6506 0.978741 19.422 0.257571 21.2873 0.0571949C23.1527 -0.143181 25.0367 0.185323 26.7242 1.00516C28.4117 1.82499 29.8344 3.10307 30.8298 4.69331C31.8252 6.28354 32.3531 8.12176 32.3532 9.99784V10.0006Z" fill="#F79E1B"/>
</svg>
