<svg width="71" height="20" viewBox="0 0 71 20" fill="none" xmlns="http://www.w3.org/2000/svg">
<path d="M50.9297 9.03906V19.998H57.018V13.5038H63.918C66.8201 13.4835 69.2859 11.6266 70.2194 9.03906H50.9297Z" fill="#37A72E"/>
<path d="M50.1172 0.0078125C50.4723 4.4827 54.7138 8.02405 59.8889 8.02405C59.9092 8.02405 70.4723 8.02405 70.4723 8.02405C70.5535 7.61816 70.5941 7.19198 70.5941 6.75566C70.5941 3.04181 67.6007 0.0382539 63.897 0.0078125H50.1172Z" fill="url(#paint0_linear_1842_408)"/>
<path d="M41.1078 7.91243C41.1789 7.79066 41.2905 7.71963 41.4326 7.71963C41.6355 7.71963 41.7877 7.88199 41.7979 8.07478V19.8962H47.8861V0.0078125H41.7979C41.0267 0.0382539 40.154 0.596346 39.8293 1.2965L34.9891 11.6872C34.979 11.7278 34.9587 11.7683 34.9384 11.8089C34.8674 11.9104 34.7456 11.9814 34.6035 11.9814C34.3803 11.9814 34.1977 11.7988 34.1977 11.5755V0.0078125H28.1094V19.8962H34.1977C34.9587 19.8556 35.811 19.2975 36.1358 18.6075L41.1078 7.94287C41.0977 7.93272 41.1078 7.92258 41.1078 7.91243Z" fill="#37A72E"/>
<path d="M18.3765 8.25977L14.8148 19.8985H10.4313L6.87976 8.24962C6.84931 8.06697 6.68696 7.92491 6.48402 7.92491C6.26078 7.92491 6.08828 8.10756 6.08828 8.32065V19.8884H0V0H5.22577H6.77828C7.89447 0 9.07154 0.872654 9.39625 1.9381L12.3592 11.6286C12.5114 12.1157 12.7448 12.1055 12.897 11.6286L15.86 1.9381C16.1847 0.862507 17.3617 0 18.4779 0H20.0304H25.2562V19.8884H19.1679V8.32065C19.1679 8.32065 19.1679 8.32065 19.1679 8.3105C19.1679 8.08727 18.9853 7.91476 18.7722 7.91476C18.5693 7.92491 18.4069 8.06697 18.3765 8.25977Z" fill="#37A72E"/>
<defs>
<linearGradient id="paint0_linear_1842_408" x1="50.1197" y1="4.01594" x2="70.5929" y2="4.01594" gradientUnits="userSpaceOnUse">
<stop stop-color="#00A0E5"/>
<stop offset="1" stop-color="#0077C3"/>
</linearGradient>
</defs>
</svg>
