<svg width="62" height="20" viewBox="0 0 62 20" fill="none" xmlns="http://www.w3.org/2000/svg">
<mask id="mask0_1842_429" style="mask-type:luminance" maskUnits="userSpaceOnUse" x="0" y="0" width="62" height="20">
<path d="M32.0309 6.3939C31.9955 9.17984 34.5137 10.7346 36.4106 11.6589C38.3597 12.6074 39.0143 13.2155 39.0069 14.0636C38.992 15.3617 37.4521 15.9345 36.0108 15.9569C33.4964 15.9959 32.0346 15.278 30.8722 14.735L29.9665 18.9734C31.1326 19.5109 33.2918 19.9795 35.531 20C40.7867 20 44.2254 17.4056 44.244 13.3829C44.2645 8.27785 37.1824 7.99517 37.2308 5.71322C37.2475 5.02139 37.9078 4.28306 39.3547 4.09522C40.0707 4.00037 42.0476 3.92784 44.2886 4.96001L45.1683 0.859216C43.9632 0.420309 42.414 -5.54421e-07 40.4854 -5.54421e-07C35.5384 -5.54421e-07 32.0588 2.62972 32.0309 6.3939ZM53.621 0.353356C52.6613 0.353356 51.8523 0.913149 51.4915 1.77236L43.9836 19.6987H49.2356L50.2808 16.8105H56.6989L57.3052 19.6987H61.9342L57.8947 0.353356H53.621ZM54.3556 5.57932L55.8713 12.8436H51.7203L54.3556 5.57932ZM25.663 0.353356L21.5232 19.6987H26.5278L30.6658 0.353356H25.663ZM18.2593 0.353356L13.05 13.5205L10.9429 2.32472C10.6956 1.07495 9.71918 0.353356 8.63494 0.353356H0.119036L0 0.915007C1.74819 1.2944 3.73442 1.90627 4.9377 2.56091C5.67417 2.96076 5.88431 3.3104 6.12609 4.26074L10.1172 19.6987H15.4064L23.515 0.353356H18.2593Z" fill="white"/>
</mask>
<g mask="url(#mask0_1842_429)">
<path d="M-6.48828 2.38896L54.5352 -20.0845L68.4178 17.6124L7.39493 40.0859" fill="url(#paint0_linear_1842_429)"/>
</g>
<defs>
<linearGradient id="paint0_linear_1842_429" x1="5.60764" y1="19.3925" x2="57.8048" y2="0.169065" gradientUnits="userSpaceOnUse">
<stop stop-color="#222357"/>
<stop offset="1" stop-color="#254AA5"/>
</linearGradient>
</defs>
</svg>
